# xmcd CD database file
#
# Track frame offsets:
#	150
#	13685
#	26315
#	39957
#	54122
#	80165
#	111910
#	140390
#	172422
#	183501
#	197706
#	211851
#	225794
#	239516
#	255853
#	268496
#	283658
#	300244
#	325661
#
# Disc length: 4649 seconds
#
# Revision: 0
# Processed by: cddbd v1.5.2PL0 Copyright (c) Steve Scherf et al.
# Submitted via: CDex 1.51
#
DISCID=fc122713
DTITLE=Charlie Parker - The Bebop Revolution 1952 - 1954
DYEAR=1954
DGENRE=Jazz
TTITLE0=The Song Is You
TTITLE1=Laird Baird
TTITLE2=Kim
TTITLE3=Cosmic Rays
TTITLE4=Compulsion
TTITLE5=The Serpent's Tooth (take 1)
TTITLE6=The Serpent's Tooth (take 2)
TTITLE7=Round Midnight
TTITLE8=If I Love Again
TTITLE9=Chi-Chi
TTITLE10=I Remember You
TTITLE11=Now's The Time
TTITLE12=Confirmation
TTITLE13=I Get A Kick Out Of You
TTITLE14=Just One Of Those Things
TTITLE15=My Heart Belongs To Daddy
TTITLE16=I've Got You Under My Skin
TTITLE17=Love For Sale
TTITLE18=I Love Paris
EXTD=YEAR: 1954
EXTT0=
EXTT1=
EXTT2=
EXTT3=
EXTT4=
EXTT5=
EXTT6=
EXTT7=
EXTT8=
EXTT9=
EXTT10=
EXTT11=
EXTT12=
EXTT13=
EXTT14=
EXTT15=
EXTT16=
EXTT17=
EXTT18=
PLAYORDER=
